<?xml version="1.0" encoding="utf-8"?>
<!-- Generator: Adobe Illustrator 27.3.1, SVG Export Plug-In . SVG Version: 6.00 Build 0)  -->
<svg version="1.1" id="Layer_1" xmlns="http://www.w3.org/2000/svg" xmlns:xlink="http://www.w3.org/1999/xlink" x="0px" y="0px"
	 viewBox="0 0 1205.3 276" style="enable-background:new 0 0 1205.3 276;" xml:space="preserve">
<style type="text/css">
	.st0{fill:#FFFFFF;}
	.st1{fill:none;stroke:#FFFFFF;stroke-width:2.1039;stroke-miterlimit:10;}
	.st2{enable-background:new    ;}
</style>
<g>
	<g>
		<path class="st0" d="M153.2,134.6c-8.8-0.8-8.4-5.9-9.3-15.1c-1.7-26.9-1.7-61.9-2.1-81.6c0-13,1.3-16.4,13-17.7l4.2-0.4
			c0.8-0.8,0.8-3.8,0-4.6c-5.9,0.4-12.2,0.4-16.8,0.4c-3.8,0-7.6,0-14.3-0.4c-0.4,8.4-5.5,18.9-14.3,36.2L96,87.1
			c-4.6,9.7-9.3,19.4-14.3,28.2h-0.4c-4.6-8.4-8.4-16.8-13-25.7L46.7,46.3c-5.5-12.6-10.1-24.4-9.3-31.6c-6.3,0.4-11.4,0.4-15.6,0.4
			c-5,0-9.3,0-15.1-0.4c-1.3,0.8-1.7,3.8-0.4,4.6l2.9,0.4c11.4,1.7,13,4.2,12.6,16c-0.4,10.1-1.3,26.1-2.1,41.7
			c-1.3,18.5-2.1,29-3.4,41.2c-1.3,13.5-3.8,14.7-11.8,16l-4.2,0.4c-0.8,0.8-0.4,3.8,0.8,4.6c6.3-0.4,13-0.4,18.9-0.4
			c7.2,0,14.3,0,20.6,0.4c1.3-0.4,1.7-3.4,0.4-4.6l-7.2-0.4c-7.2-0.4-8.4-3.4-8.4-17.3c0-16,0.8-32.8,1.3-44.2
			c0.4-10.9,1.3-21.9,1.7-33.2h0.4c4.2,8.8,8,18.5,12.2,26.9l16.8,36.2c4.2,9.3,13.5,27.8,16.4,37.4c0.4,0.4,1.3,0.8,1.7,0.8
			c0.8,0,1.7,0,1.7-0.8c3.4-8.4,11.8-26.1,20.2-42.9l16.8-32.8c3.8-7.2,10.9-22.3,12.2-24.4h0.4l0.4,78.3c0,12.2,0,15.1-9.3,16
			l-5,0.4c-1.3,1.3-0.8,3.8,0.4,4.6c7.6-0.4,16-0.4,22.7-0.4c6.7,0,14.3,0,22.3,0.4c1.3-0.8,1.3-3.4,0.4-4.6L153.2,134.6
			L153.2,134.6z"/>
		<path class="st0" d="M208.3,55.1c-27.4,0-46.3,18.9-46.3,44.2c0,23.6,17.3,42.5,46.3,42.5c26.5,0,45.4-18.5,45.4-43.8
			C253.7,74.9,238.6,55.1,208.3,55.1L208.3,55.1z M212.5,135.9c-21.9,1.7-32.4-18.1-33.7-37.4c-2.1-26.5,11.8-36.6,25.2-37.9
			c20.6-1.7,32,17.7,33.7,37.4C239.4,124.1,226.4,135.1,212.5,135.9L212.5,135.9z"/>
		<path class="st0" d="M567.6,33.2c0-9.7-6.7-18.1-14.3-18.1c-7.2,0-8.8,5-8.8,7.6c0,3.4,2.5,5,5,5c3.8,0.4,9.3,3.4,9.3,10.5
			c0,7.6-7.2,13-14.3,16c-0.8,1.3,0,3.4,1.3,3.8C557.5,55.1,567.6,46.3,567.6,33.2L567.6,33.2z"/>
		<path class="st0" d="M599.6,94.3l-11.8-5.9c-7.6-3.8-12.6-8-12.6-14.7S579.4,61,590.4,61c10.9,0,16,9.7,17.7,16
			c0.8,1.3,4.2,1.3,5-0.4c0-8-1.3-15.1-2.5-18.5c-6.3-1.3-10.9-2.9-17.3-2.9c-18.9,0-29.5,9.7-29.5,23.1c0,10.5,7.6,17.7,16.8,22.7
			l8.4,4.2c10.9,5.5,13,11.8,13,17.7c0,8.4-6.3,13.5-15.6,13.5c-12.6,0-20.6-13.5-22.3-20.2c-1.3-1.7-4.2-1.7-5,0.4
			c0,10.1,2.1,16.8,3.8,19.4c2.5,1.7,10.1,5.9,21.5,5.9c18.5,0,30.7-9.3,30.7-24C614.8,105.2,606.3,97.6,599.6,94.3L599.6,94.3z"/>
		<path class="st0" d="M428.4,61.4c-8.8-2.9-18.1-4.2-28.6-4.2c-15.1,0-25.7,0.4-36.2,1.3c-1.7,0.4-1.7,4.2-0.4,4.6l5.5,0.8
			c4.2,0.4,4.6,3.8,4.6,16v40c0,13-0.8,13.5-8.8,15.1l-3.4,0.4c-1.3,0.8-1.3,4.2,0.4,4.6c7.6-0.4,13-0.4,19.4-0.4
			c2.9,0,6.3,0,10.1,0.4c3.8,0.4,8.4,0.4,12.6,0.4c9.3,0,19.8-1.3,28.2-5.9c15.1-7.6,22.7-21.5,22.7-36.2
			C454,80.8,445.2,67.3,428.4,61.4L428.4,61.4z M404,134.6c-14.3,0-16-5.9-16-18.1V72c0-4.2,0-6.7,1.3-7.2c1.7-1.3,5-2.1,11.4-2.1
			c21,0,37.4,12.2,37.4,34.9S426.3,134.6,404,134.6L404,134.6z"/>
		<path class="st0" d="M534.8,57.2c-5.5,0.4-9.3,0.4-13.5,0.4s-8.4,0-14.3-0.4c-1.7,0.8-2.1,3.8-0.4,4.6l3.8,0.4
			c4.6,0.4,4.2,2.1,1.3,7.6l-7.6,13.9c-3.4,5.9-5.9,10.5-8.8,15.6c-2.9-5-5.5-10.1-8.4-15.6l-7.2-13.5c-2.9-5.9-2.5-6.7,1.7-8
			l2.5-0.4c1.7-0.8,1.3-3.8-0.4-4.6c-5.9,0.4-10.1,0.4-16,0.4c-6.7,0-10.9,0-17.3-0.4c-1.3,0.4-1.7,3.4-0.4,4.6l5,0.8
			c5,0.8,6.7,2.5,10.5,10.1L478.9,98c4.6,8.4,5,10.1,5,16v7.2c0,10.9-0.8,12.2-8.8,13l-4.6,0.4c-1.3,0.8-1.3,4.2,0.4,4.6
			c8.4-0.4,14.3-0.4,20.2-0.4s11.8,0,20.2,0.4c1.7-0.4,1.7-3.8,0.4-4.6l-4.6-0.4c-8-0.8-8.8-2.1-8.8-13v-10.1
			c0-5.5,0.4-7.2,7.2-18.1l11.8-18.9c5.9-9.3,6.7-10.5,12.6-11.8l4.6-0.8C536.5,61,536.1,57.6,534.8,57.2L534.8,57.2z"/>
		<path class="st0" d="M308.9,55.1c-27.4,0-46.3,18.9-46.3,44.2c0,23.6,17.3,42.5,46.3,42.5c26.5,0,45.4-18.5,45.4-43.8
			C354.7,74.9,339.2,55.1,308.9,55.1L308.9,55.1z M313.1,135.9c-21.9,1.7-32.4-18.1-34.1-37.4c-2.1-26.5,11.8-36.6,25.2-37.9
			c20.6-1.7,32,17.7,33.7,37.4C340.4,124.1,327.4,135.1,313.1,135.9z"/>
	</g>
	<g>
		<path class="st0" d="M21.9,184.7h6.7l22.3,56.4h-9.7l-5.5-14.3H15.2l-5.5,14.3H0.4L21.9,184.7z M33.3,219.6L28.6,207
			c-1.7-5-2.5-7.6-2.9-9.3l0,0c-0.4,2.1-1.3,4.6-2.9,9.3l-4.6,12.6H33.3L33.3,219.6z"/>
		<path class="st0" d="M103.9,241.1l-25.2-33.2c-2.9-3.4-5-6.7-6.7-9.3l0,0c0,2.5,0.4,5.5,0.4,9.3v33.7h-9.3v-56.4h8.4l24.4,32
			c2.9,3.8,5,6.7,6.7,9.7l0,0c0-2.9,0-6.3,0-9.7v-32h8.8v56H103.9L103.9,241.1z"/>
		<path class="st0" d="M145.2,184.7h6.7l22.3,56.4h-9.7l-5.5-14.3h-20.6l-5.5,14.3h-9.3L145.2,184.7L145.2,184.7z M156.5,219.6
			l-4.6-12.6c-1.7-4.6-2.5-7.2-2.9-9.3l0,0c-0.4,2.1-1.3,4.6-2.9,9.3l-4.6,12.6H156.5L156.5,219.6z"/>
		<path class="st0" d="M186.4,185.1h8.8v48.4h20.2v7.6h-29L186.4,185.1L186.4,185.1z"/>
		<path class="st0" d="M235.2,218.8l-18.9-33.7h9.7l13.9,25.7l0,0l13.5-25.7h9.7l-18.9,34.1v22.3h-9.3L235.2,218.8L235.2,218.8z"/>
		<path class="st0" d="M285.3,192.7h-16v-7.6h42.9l-2.5,7.6h-15.1v48.4h-8.8v-48.4H285.3z"/>
		<path class="st0" d="M323.2,185.1h9.3v56h-8.8v-56H323.2z"/>
		<path class="st0" d="M392.6,237.7c-5.9,3.4-11.8,4.2-17.3,4.2c-17.7,0-27.8-11.8-27.8-28.2s11.8-29.5,29-29.5
			c5.9,0,11.4,1.3,14.3,2.9v8.4c-4.2-2.1-8.8-3.4-14.3-3.4c-12.6,0-19.8,9.7-19.8,21.5c0,12.2,7.6,21,19.4,21
			c5.5,0,9.7-1.7,13.5-3.8L392.6,237.7L392.6,237.7z"/>
		<path class="st0" d="M407.3,230.6c2.9,2.1,7.2,3.8,12.6,3.8c5.5,0,10.1-2.1,10.1-7.6c0-11.8-24.4-10.5-24.4-27.4
			c0-8.4,6.3-15.1,17.7-15.1c5.5,0,10.1,1.3,13,2.9v8c-4.2-2.1-8.4-3.4-13-3.4s-8.4,1.7-8.4,6.7c0,10.9,24.4,9.7,24.4,27.4
			c0,9.7-8,15.6-19.4,15.6c-6.3,0-12.2-2.1-16-4.6L407.3,230.6z"/>
	</g>
	<line class="st1" x1="706.9" y1="0" x2="706.9" y2="276"/>
	<g class="st2">
		<path class="st0" d="M797.6,95.3h17.4c8.2,0,14,1.3,18.7,3.9c8,4.4,12.7,12.4,12.7,23.3c0,9.8-4.2,19.2-14.9,23.9
			c-4.4,1.9-9.9,3.1-17.5,3.1H809v30.6h-11.5V95.3z M814.7,140.1c5.1,0,8.9-0.9,11.6-2.3c5.5-2.8,8.1-8.1,8.1-15.3
			c0-6.7-2.6-12.1-7.6-15.1c-2.8-1.7-6.6-2.7-12-2.7H809v35.4H814.7z"/>
		<path class="st0" d="M893.3,173.5c-4.6,4.4-10.6,7.8-18.1,7.8c-11.2,0-19.6-7.3-19.6-19c0-8.1,4.1-13.5,10.3-16.5
			c4.2-2.1,9.1-2.8,15.3-3.1l11.3-0.4v-3.2c0-8.6-5.3-12.4-12.6-12.4c-6.9,0-12.2,2.2-16.6,4.8l-4-7.8c7.1-4.2,14.8-6,22-6
			c13.8,0,22.5,6.6,22.5,21.2V161c0,10.4,0.4,16,1.2,19h-9.8L893.3,173.5z M882.6,150.9c-4.9,0.1-8.1,0.9-10.7,2.2
			c-3.2,1.8-4.8,4.9-4.8,8.6c0,6.3,4.1,10.4,10.6,10.4c7.1,0,12.1-4.2,14.8-6.9v-14.7L882.6,150.9z"/>
		<path class="st0" d="M918.3,167.5c3.9,2.3,9.1,4.6,15.7,4.6c6.8,0,12.4-2.4,12.4-8.8c0-12.4-28.6-8.2-28.6-28.4
			c0-9.6,7.6-17.2,21.4-17.2c6,0,11.6,1.3,16,3v9.8c-4.4-1.9-9.4-3.5-15.4-3.5c-5.7,0-10.7,1.7-10.7,7.5c0,12.3,28.6,8,28.6,28.8
			c0,12.5-10.5,18.1-23.2,18.1c-8.5,0-15.4-2.7-19.7-5.4L918.3,167.5z"/>
		<path class="st0" d="M968.7,167.5c3.9,2.3,9.1,4.6,15.7,4.6c6.8,0,12.4-2.4,12.4-8.8c0-12.4-28.6-8.2-28.6-28.4
			c0-9.6,7.6-17.2,21.4-17.2c6,0,11.6,1.3,16,3v9.8c-4.4-1.9-9.4-3.5-15.4-3.5c-5.7,0-10.7,1.7-10.7,7.5c0,12.3,28.6,8,28.6,28.8
			c0,12.5-10.6,18.1-23.2,18.1c-8.5,0-15.4-2.7-19.7-5.4L968.7,167.5z"/>
		<path class="st0" d="M1025,128.4h-8.4v-9.1h8.4v-9.9c0-14.8,8.9-20.3,18.7-20.3c3.2,0,7.1,0.6,10.4,2.2l-2.3,9.1
			c-2.3-0.9-4.6-1.4-6.9-1.4c-5.8,0-8.5,3.6-8.5,10v10.3h15.6l-3,9.1h-12.6v51.7H1025V128.4z"/>
		<path class="st0" d="M1055.6,149.6c0-18,11.5-31.9,28.9-31.9c17.2,0,28.8,13.9,28.8,31.9c0,17.9-11.4,31.8-28.9,31.8
			C1067.1,181.4,1055.6,167.5,1055.6,149.6z M1101.7,149.6c0-13.1-6.4-22.5-17.1-22.5c-10.8,0-17.2,9.4-17.2,22.5
			c0,13,6.4,22.4,17.1,22.4C1095.2,172,1101.7,162.6,1101.7,149.6z"/>
		<path class="st0" d="M1126.3,119.2h9.5l1.3,7.5c6.4-6.8,11.5-9,17.1-9c2.6,0,5.4,0.6,7.2,1.8l-4,10c-1.9-1-3.9-1.5-5.9-1.5
			c-4.2,0-8.2,2.3-13.9,7.8v44.3h-11.3V119.2z"/>
		<path class="st0" d="M1174.3,166.4v-38.1h-10.4v-9.1h10.4v-13.9l11.3-3.6v17.5h18.3l-3.1,9.1h-15.2v35.9c0,5.4,2.2,7.7,6.2,7.7
			c3.9,0,7.3-1.7,9.8-3.2l3.7,7.9c-4,2.8-10,4.8-16.1,4.8C1179.8,181.4,1174.3,176,1174.3,166.4z"/>
	</g>
</g>
</svg>
